<?xml version="1.0" encoding="utf-8"?>
<!-- Generator: Adobe Illustrator 26.0.1, SVG Export Plug-In . SVG Version: 6.00 Build 0)  -->
<svg version="1.1" id="Layer_1" xmlns="http://www.w3.org/2000/svg" xmlns:xlink="http://www.w3.org/1999/xlink" x="0px" y="0px"
	 viewBox="0 0 327.5 44.19" style="enable-background:new 0 0 327.5 44.19;" xml:space="preserve">
<style type="text/css">
	.st0{fill:#214873;}
	.st1{fill:#285284;}
</style>
<g>
	<path class="st0" d="M1.95,33.47c2.56,1.37,6.57,2.68,10.7,2.68c4.43,0,6.78-1.84,6.78-4.65c0-2.62-2.04-4.16-7.14-5.96
		C5.16,23.01,0.51,19.13,0.51,12.9c0-7.28,6.11-12.81,16.14-12.81c4.87,0,8.38,0.97,10.9,2.15l-2.13,7.74
		c-1.69-0.81-4.76-2.03-8.91-2.03c-4.2,0-6.21,1.94-6.21,4.13c0,2.71,2.36,3.91,7.9,6c7.55,2.82,11.05,6.75,11.05,12.78
		c0,7.12-5.46,13.24-17.2,13.24c-4.84,0-9.67-1.31-12.05-2.65L1.95,33.47z"/>
	<path class="st0" d="M44.06,8.86H32.54v-8.1h32.84v8.1H53.7v34.57h-9.65V8.86z"/>
	<path class="st0" d="M80.78,43.43V25.94L67.31,0.76h11.05l4.34,10.27c1.31,3.06,2.24,5.35,3.29,8.17h0.13
		c0.95-2.66,1.98-5.16,3.22-8.18l4.3-10.26h10.88L90.43,25.61v17.82H80.78z"/>
	<path class="st0" d="M107.99,0.76h9.65v34.58h16.98v8.09h-26.62V0.76z"/>
	<path class="st0" d="M165.68,25.38h-15.7v10.15h17.55v7.9h-27.2V0.76h26.29v7.9h-16.64v8.89h15.7V25.38z"/>
	<path class="st0" d="M190.7,0.76h3.1v40.07h21.14v2.6H190.7V0.76z"/>
	<path class="st0" d="M259.2,21.52c0,14.75-10.51,22.66-21.65,22.66c-12.16,0-21.21-9.05-21.21-21.52c0-13.42,9.5-22.66,21.65-22.66
		C250.53,0,259.2,9.24,259.2,21.52z M219.57,22.54c0,10.07,6.9,19.12,18.11,19.12c11.27,0,18.3-8.55,18.3-19.88
		c0-9.24-6.01-19.25-18.11-19.25C225.71,2.53,219.57,12.03,219.57,22.54z"/>
	<path class="st0" d="M267.17,0.76h23.17v2.6h-20.07v16.78h18.36v2.6h-18.36v20.7h-3.1V0.76z"/>
	<path class="st0" d="M308.51,3.36h-15.89v-2.6h34.88v2.6h-15.89v40.07h-3.1V3.36z"/>
</g>
</svg>
